<?xml version="1.0" encoding="UTF-8"?><svg id="a" xmlns="http://www.w3.org/2000/svg" xmlns:xlink="http://www.w3.org/1999/xlink" viewBox="0 0 215.34 209.27"><defs><clipPath id="b"><path d="M29.64,50.25c-4.91,6.25-8.54,12.47-10.89,18.66-.81,2.13-1.47,3.84-1.98,5.15-.88,2.22-1.5,3.96-1.87,5.21-1.59,5.45-2.7,11-3.33,16.66-.73,5.18-.9,10.38-.52,15.61,1.32,18.4,7.33,34.72,18.04,48.95,4.36,5.79,8.71,10.67,13.06,14.63,16.29,14.86,38.74,23.82,60.4,24.78,13.71.61,27.21-1.76,40.5-7.1,12.73-5.11,24.09-12.79,34.06-23.02,15.06-15.46,23.61-34.03,25.64-55.7l.42-7.67-.13-7.3c-.93-9.59-2.54-17.32-4.84-23.17-.71-1.8-2.55-3.68-5.51-5.63l-4.69-4.5-3.71-3.29-11.68-9.7c-.24-.2-.6-.22-.87-.05-.39.25-.72.63-1.01,1.16-2.33,1.81-5.26,2.73-7.39,1.04-.41-.32-1.01-.03-1.01.49v16.82c0,.33.27.6.6.59l23.23-.35c2.32-1.41,3.84-.7,4.55,2.14.49,1.93-.11,3.22-1.79,3.85-1.47.56-3.34-.07-4.98-.22h-21.02c-.34,0-.61.26-.61.6v4.49c0,.36.3.66.66.65l11.78-.22c.11,0,.21-.02.32-.06,2.48-.83,5.02-1.26,7.63-1.3,5.25.7,8.52,3.42,9.81,8.15,1.76,6.41-.43,11.24-6.58,14.47-2.19,1.16-4.17,1.47-5.92.93-4.64-1.42-9.63-1.88-14.96-1.39-.65.06-1.14.6-1.14,1.25v2.57c0,.61.5,1.11,1.11,1.1,3.48-.03,7.26-.41,8.56,2.96.18.46.71.68,1.15.46,6.37-3.07,11.74-1.92,16.11,3.45,3.33,7.28,1.92,13.22-4.23,17.81-4.81,1.62-9.02,1.19-12.63-1.28-1.43-.98-2.81-2.91-4.1-3.74-.37-.24-.83.14-.66.55l2.46,5.83c.16.39-.11.82-.53.83l-5.23.16c-1.01-.21-2.02.25-2.02,1.37,0,.76-.13,1.45-.36,2.08-.12.33.1.69.45.74.16.03.74.04,1.74.04,4.19,0,8.73,3.38,8.71,7.9-.02,5.62-1.77,9-7.95,9.01-7.88,0-11.92.02-12.11,0-.2,0-.38.1-.47.27l-2.59,4.44c-.05.09.01.19.11.19l18.32-.43c1.61-.04,2.93,1.26,2.93,2.87v.63c0,1.55-1.28,2.81-2.83,2.78l-20.98-.39c-1.15-.02-2.23-.54-2.96-1.43-.07-.08-.3-.19-.69-.32-.33-.11-.67.13-.67.48,0,7.09.77,11.89-3.17,16.45-2.71,3.14-8.48,3.8-11.78,1.81-2.99-1.81-4.76-4.8-5.32-8.97-.05-.32-.31-.55-.63-.55h-5.37c-.37,0-.69.27-.74.64-.33,2.19-1.08,4.17-2.25,5.95-3.77,4.85-10.29,4.66-14.82.97-.37-.3-.91-.29-1.27.03-2.93,2.6-6.26,3.36-9.98,2.28-2.36-.69-4.79-3.16-6.49-4.92-.3-.32-.82-.26-1.05.12-2.47,4.15-6.22,5.82-11.26,5.02-8.2-2.66-7.27-9.92-7.42-16.83,0-.31-.25-.55-.56-.56-4.59-.05-9.64-.05-15.16.01-2.21.03-4.87,1.74-6.38-1.3-1.67-3.39,1-5.62,4.36-4.83,1.11.25,1.94.38,2.51.39,5.49.05,10.32.04,14.49-.01.37,0,.67-.31.67-.68v-3.33c0-.4-.33-.72-.72-.7-6.93.31-13.12-.21-18.59-1.58l-2.43-4.81c-.15-.31-.49-.48-.84-.43-5.37.86-9.57-1.04-12.61-5.7-2.05-3.79-1.94-7.65.33-11.58.21-.36.08-.81-.29-1.01-7.73-4.19-7.85-16.86.31-21.07,4.15-2.15,8.48-1.86,12.97.87.29.17.66.07.82-.22.91-1.66,1.93-2.52,3.06-2.58,1.76-.09,3.9-.14,6.42-.15.33,0,.59-.26.59-.59v-3.73c0-.33-.28-.59-.61-.56-2.19.2-4.4.18-6.65-.06-3.21-.35-5.08.22-8.68,1.11-7.23,1.79-13.86-3.19-14.71-10.61-.19-4.27,1.49-7.72,5.02-10.35,2.95-2.19,5.89-2.93,8.81-2.22,5.69,1.38,10.57,1.84,14.64,1.38l8.54-.13c.3,0,.6-.09.85-.27l46.01-31.39c.27-.19.64-.18.91.02l5.25,3.97c.24.18.57.19.82.02l4.4-3c.29-.2.31-.63.03-.85-5.17-4.15-9.65-8.69-15.62-4.65-14.86,10.05-29.71,20.18-44.54,30.41l-7.85.21c-.28.01-.57.06-.83.16l-4.69,1.75c-.09.03-.18.05-.27.06-7.45.51-14.91-4.08-15.11-12.05-.02-.71.65-1.24,1.34-1.06,1.05.27,1.98.22,2.81-.15,1.69,6.01,5.24,8.58,10.67,7.72,3.71-.59,6.11-3.05,7.2-7.38.24.11.41.04.52-.19l12.24.04c.33,0,.6-.27.6-.6v-13.99c0-.3-.2-.56-.48-.64-.58-.18-1.47-.58-2.68-1.2-4.17-2.13-5.95-5.36-5.34-9.7.56-4.06,2.71-6.67,6.45-7.82,2.79-.86,5.37-.68,7.74.54,1.89,1.3,3.95,4.3,6.22,3.6.27-.08.42-.36.34-.63-.79-2.73-.6-5.33.56-7.82,1.81-2.79,4.19-4.22,7.12-4.28,10.33-.21,26.17-.21,47.5-.01,1.31.01,2.81.73,4.51,2.15,3.27,3.48,2.63,6.12,2.11,10.4-.04.33.21.61.54.61h5.07c.35,0,.6-.34.5-.68-.06-.21-.18-.43-.37-.65-1.44-1.75-.67-4.01,1.13-5.06,2.67-1.65,5.44.43,5.73,3.27-.29,1.01-.73,1.97-1.34,2.86-.22.33-.08.77.29.91.74.27,1.31.85,1.7,1.76.05.13.08.27.08.41v3.85c0,.24.28.38.47.22,3.41-2.85,6.83-4.19,10.26-4.02l10.15-.2c.44-.01.64-.57.3-.85-4.56-3.83-9.47-7.44-14.74-10.83-.63-.4-.75-.87-.36-1.41.36-.51.37-1,.02-1.47-.49-.66-1.24-1.1-2.25-1.31-4.47-2.78-9.24-5.02-14.33-6.71-9.73-3.55-19.81-5.39-30.22-5.54-32.99-.47-59.68,12.18-80.09,37.95M85.62,34.9l19.12.11,2.72-.02,21.23.27c1.35.02,2.44-1.01,2.42-2.27v-.18c-.03-1.4-1.17-2.52-2.57-2.52l-16,.06c-9.5.1-18.8.1-27.89,0-2.07-.02-3.23.41-3.3,2.46-.08,2.47,2.4,2.88,4.27,2.08M129.74,48.65l.02,11.22c0,.35.17.69.45.9l4.16,3.15c.26.19.63.01.63-.32l.02-15.03,4.21-.04.1,18.82c0,.21.1.4.27.53l4.78,3.62c.08.06.2,0,.2-.09l-.04-23.19-.17-3.66c-.02-.32-.28-.57-.6-.57h-13.43c-.3,0-.55.24-.55.54l-.05,4.12M153.04,77.84l2.83,2.52c.32.28.81.05.81-.37-.05-8.03-.04-16.14.01-24.35,0-2.33,1.03-3.71,3.06-4.14.26-.05.45-.28.46-.54l.17-3.1c-2.87-1.41-5.45-.28-7.75,3.39-.95,1.51-1.43,3.56-1.44,6.14-.05,9.51-.04,15.67.04,18.5.01.73.62,1.38,1.81,1.95M90.98,80.08c.36-3.43.76-10.19-3.82-9.29-4.29.85-3.19,6.12-3.32,9.34l-6.99.06c-.4.01-.79.07-1.16.19-4.09,1.31-6.12,4.23-6.08,8.76.07,7.11.1,14.15.11,21.14l.03,17.19c0,1.71,1.45,3.07,3.2,3.02h.13c1.77-.06,3.17-1.47,3.19-3.21l.17-17.7.04-22.71c0-.29.24-.53.53-.53l7.14-.1-.12,9.01-.03,27.02.14,13.87c0,.33-.26.6-.59.6l-19.53-.14c.13-15.35.15-30.48.08-45.41-.01-1.62-1.62-2.74-3.14-2.18-.43.16-.89.62-1.4,1.38l-2.07,1.61c-.31.25-.69.38-1.08.38l-14.84.14c-1.25.31-2.35-.42-3.29-2.19-2.21-2.22-5.01-2.54-8.4-.96-2.8,2.75-3.03,5.8-.68,9.14.19.28.43.51.71.68,3.61,2.21,7.06,1.33,10.35-2.66l16.64.19c.27.01.48.22.48.49,0,13.95,0,26.12,0,36.49,0,2.17.27,3.78.78,4.85,2.02,4.19,4.83,4.88,10.03,4.81,3.74-.05,9.57-.07,17.48-.06.3,0,.6-.05.88-.16,2.83-1.07,4.28-3.4,4.35-7,.09-4.97.13-9.83.11-14.56l.2-5c0-.34.29-.61.64-.61h11.74c.33,0,.6.26.61.59l.16,7.03-.03,18.8c0,.5.41.91.91.91h5.3c.45,0,.81-.36.81-.81v-20.4c.34-6.32.15-12.5-7.37-12.42-4.1.04-8.23.03-12.38-.03-.31-.01-.55-.25-.55-.56l-.06-13.5-.06-9.06,10.42-.31c.34,0,.62.26.62.6v9.41c0,.34-.28.62-.62.62h-4.88c-1.67,0-3.03,1.36-3.03,3.03v.34c0,1.63,1.32,2.95,2.95,2.95h16.16c1.62,0,2.94-1.32,2.94-2.94v-.29c0-1.71-1.38-3.09-3.09-3.09h-3.16c-.31,0-.57-.26-.57-.57v-32.72c0-1.66-1.35-3.01-3.01-3.01h-.41c-1.81,0-3.27,1.47-3.27,3.28v15.61c0,.34-.27.61-.61.61l-10.4.04M138.3,84.48h-14.76c-2.16-2.7-4.39-3.2-6.68-1.49-3.45,2.58-2.46,7.46,1.92,7.98l26.02-.44c.57,0,1.13.17,1.58.52l5.19,3.92c.34.26.54.67.54,1.1v40.15c0,.36-.3.66-.66.66h-25.37c-.39,0-.71-.31-.72-.7l-.11-4.12-.1-4.87.08-10.66c0-.27.21-.48.48-.48h12.6c.27,0,.49.22.5.5v10.59c.01,1.82,1.49,3.3,3.31,3.3h.23c1.74-.03,3.12-1.44,3.14-3.18.07-7.41.12-14.28.13-20.63.01-3.33-.41-5.57-1.24-6.72-1.43-1.95-3.48-2.98-6.13-3.08-.55-.01-4.58.03-12.1.13-1.6.02-2.89,1.32-2.89,2.92v.43c0,1.61,1.31,2.92,2.92,2.92h12.04c.35,0,.63.28.63.62v5.31c0,.3-.25.55-.55.55-2.93.02-6.26.01-10.01-.02-2.73-.03-4.72.31-5.97,1-4.44,2.47-4.21,6.04-3.99,11.15l.04,9.73c-.56,3.95.17,7.04,2.19,9.25,1.33,1.83,3.14,2.76,5.43,2.77,8.01.04,16.03-.06,24.05-.3,5.41-.16,8.2-2.96,8.35-8.41.36-12.73.31-25.44-.14-38.13l16.62-.04c.25.03.46.17.64.4,1.75,3.01,4.16,4.03,7.23,3.06,5.42-1.73,6-10.49-.48-11.71-3.54-.37-6.03.91-7.48,3.84l-14.47.16c-.84.01-1.65-.27-2.31-.79l-3.66-2.86-34.99-27.29c-1.32-1.02-3.21-.74-4.16.62l-.07.1c-.98,1.41-.69,3.34.66,4.41l22.52,17.83M32,115.71c-2.27.92-3.63,2.45-4.07,4.59-.58,2.68.16,4.74,2.22,6.19,3.21,2.24,6.53,1.63,9.98-1.82l11.46.16c.17,0,.31-.14.31-.31v-3.31c0-.14-.12-.26-.26-.26h-10.46c-.37,0-.69-.22-.81-.56-1.47-4.04-4.26-5.6-8.37-4.68M174.1,125c.52.24.99.68,1.4,1.32,1.89,2.98,4.74,4.15,8.02,2.55,5.19-2.52,4.81-10.09-1.08-11.78-2.66-.56-5.21.5-7.66,3.17-.39.42-.93.66-1.5.66h-8.8c-.28,0-.51.23-.51.51v3.08c0,.3.24.54.53.54l9.6-.05M33.93,135.06c-7.02,5.31,4.15,16.48,9.53,6.46.18-.33.52-.54.9-.54h8.24c.25,0,.41-.25.31-.48l-1.43-3.39c-.06-.14-.2-.23-.35-.23h-6.98c-.24,0-.48-.1-.65-.27-1.53-1.49-2.73-2.33-3.6-2.52-2.21-.81-4.2-.49-5.97.97M48.51,146.64c-4.04,3.37-1.27,6.39,3.02,5.68l10.64-.08c.49-.01.89-.41.88-.9,0-.87-.34-1.51-1.26-1.84-3.37-1.19-6.09-3.32-8.14-6.38-.19-.27-.55-.35-.82-.18-1.71,1.03-3.15,2.26-4.32,3.7h0Z" style="fill:none;"/></clipPath></defs><ellipse cx="107.85" cy="104.77" rx="106.15" ry="104.51" style="fill:#08204f;"/><g style="clip-path:url(#b);"><path d="M139.95,17.84c.13.36.22.7.29,1.02.09.41.02.73-.2.96-.34.35-.86.54-1.55.59" style="fill:none; stroke:#dcf8fa; stroke-miterlimit:10;"/><path d="M138.49,20.41c-9.13-2.99-18.11-4.71-26.95-5.15-20.77-1.02-39.93,4.42-57.48,16.32" style="fill:none; stroke:#82e9f5; stroke-miterlimit:10;"/><path d="M54.06,31.58l-7,5.01c-.22.15-.4.35-.53.59-.85,1.53-2.51,1.88-3.74,3.14-.79.81-1.52,1.64-2.2,2.5" style="fill:none; stroke:#9df3fc; stroke-miterlimit:10;"/><path d="M40.59,42.82l-7.36,8.26c-.21.24-.51.37-.82.38-.99,0-1.92-.39-2.77-1.21" style="fill:none; stroke:#82e9f5; stroke-miterlimit:10;"/><path d="M138.49,20.41c4.2,1.59,8.59,3.52,13.16,5.77.75.37,1.5.37,2.25-.02.39-.19.51-.73.38-1.61" style="fill:none; stroke:#61e1f0; stroke-miterlimit:10;"/><path d="M161.16,40.62l-11.46-5.99M143.97,31.36l-8.98-4.62M75.86,28.88c-2.35.17-4.65.74-6.92,1.72-.1.04-.07.19.04.19h1.12c.39,0,.67.37.57.74-.21.75-.85,1.48-1.93,2.2M54.55,41.01c-2.42,2.53-4.93,5.09-7.52,7.67-2.09,2.09-3.68,3.4-4.75,3.95-6.99,3.57-11.55,5.48-14.67,13.8-.2.53.36,1.02.86.76l1.12-.59c.65-.34,1.12-.95,1.3-1.67.58-2.31,1.78-4.34,3.59-6.08" style="fill:none; stroke:#22dcf2; stroke-miterlimit:10;"/><path d="M34.48,58.85c-2.41,2.7-3.29,5.4-2.66,8.1" style="fill:none; stroke:#83e7e9; stroke-miterlimit:10;"/><path d="M56.42,78.03c-1.6,1.54-3.47,2.86-5.6,3.95-.95.49-1.3,1.13-1.05,1.92" style="fill:none; stroke:#82e9f5; stroke-miterlimit:10;"/><path d="M21.3,95.09c-.47,5.47,1.3,10.02,5.3,13.67.15.14.09.38-.1.44-.77.24-1.38.71-1.82,1.4" style="fill:none; stroke:#06c2e1; stroke-miterlimit:10;"/><path d="M24.68,110.6c-1.6-2.63-3.14-2.63-4.63,0" style="fill:none; stroke:#04708d; stroke-miterlimit:10;"/><path d="M20.05,110.6c-2.74-.55-5.33-1.76-7.78-3.64-.25-.19-.4-.48-.41-.79l-.29-10.24" style="fill:none; stroke:#06c2e1; stroke-miterlimit:10;"/><path d="M40.59,42.82l-1.48,1.99c-.07.09-.06.22.02.29h0c.08.09.21.09.29,0,3.36-3.07,6.81-6.05,10.36-8.92,1.19-.96,2.61-2.5,4.27-4.61" style="fill:none; stroke:#22dcf2; stroke-miterlimit:10;"/><path d="M49.69,67.29c-.36-.02-.57-.33-.63-.92-.5-4.55-2.61-7.2-6.32-7.95-5.38-1.09-9.4,1.97-9.96,7.48-.09.91-.41,1.26-.96,1.05" style="fill:none; stroke:#f9d89a; stroke-miterlimit:10;"/><path d="M27.74,145.27c.91,3.18,2.6,5.18,5.09,5.99,4.39,1.43,7.98,3.08,10.79,4.95M70.42,185.63c3.57,1.19,6.81,1.22,9.72.07,1.6-.63,3.21-.67,4.82-.1,2.8.97,5.79,1.84,8.98,2.62" style="fill:none; stroke:#158ec8; stroke-miterlimit:10;"/><path d="M93.94,188.22l-9.4-1.99c-1.51-.32-3.07-.25-4.55.2-4.59,1.4-7.5,2.08-13.07.76-.24-.05-.4.24-.23.41l1.28,1.28c.35.35.85.53,1.35.47l14.39-1.53s.09-.05.08-.1l-.04-.39c-.02-.16.13-.29.29-.25,3.96.95,7.28,1.74,11.47,1.75,3.21,0,6.87.11,10.96.31,3.42.17,5.98-1.01,7.68-3.54" style="fill:none; stroke:#109ecd; stroke-miterlimit:10;"/><line x1="114.15" y1="185.6" x2="115.29" y2="182.13" style="fill:none; stroke:#158ec8; stroke-miterlimit:10;"/><path d="M165.92,136.56c4.31.5,8.62.86,12.91,1.08,2.11.1,4.37-.15,6.22-1.49.06-.04.02-.14-.05-.13l-.72.08c-.24.03-.35-.3-.14-.42l2.47-1.47" style="fill:none; stroke:#109ecd; stroke-miterlimit:10;"/><path d="M20.05,110.6c.4,3.75,4.23,3.75,4.63,0" style="fill:none; stroke:#036083; stroke-miterlimit:10;"/><path d="M50.21,67.1c.19-5.57-2.15-8.89-7.01-9.95-3.11-.67-6.02-.11-8.72,1.7" style="fill:none; stroke:#9ef1ef; stroke-miterlimit:10;"/><line x1="203.04" y1="99.11" x2="203.17" y2="106.41" style="fill:none; stroke:#169ed2; stroke-miterlimit:10;"/><path d="M202.75,114.08l-3.84,9.47c-.03.06-.1.1-.16.07-.07-.02-.11-.09-.09-.16.01-.04-.03-.12-.12-.23-.06-.08-.16-.12-.25-.11,0,0-.09.02-.24.06-.2.06-.41.02-.57-.1-2.61-1.84-4.82-4.07-6.64-6.68" style="fill:none; stroke:#06c2e1; stroke-miterlimit:10;"/><path d="M182.7,82.45c.63-1.25,1.05-2.63,1.24-4.16" style="fill:none; stroke:#22dcf2; stroke-miterlimit:10;"/><path d="M114.15,185.6c-4.23.87-8.6,1.09-13.11.67-1.83-.17-4.19.48-7.1,1.95" style="fill:none; stroke:#1f7abd; stroke-miterlimit:10;"/><line x1="177.21" y1="57.42" x2="177.45" y2="58.34" style="fill:none; stroke:#2cb8dd; stroke-miterlimit:10;"/><path d="M177.45,58.34c2.78,3.81,5.96,5.31,10.55,7.47" style="fill:none; stroke:#21cce8; stroke-miterlimit:10;"/><path d="M192.69,70.31c-3.31-1.73-7.73-4.28-13.25-7.67-4.27-2.62-9.22-4.23-14.85-4.83-.23-.02-.36.25-.2.41l3.34,3.34c.3.29.73.4,1.13.28,6.9-2.02,14.87,4.71,17.3,10.68" style="fill:none; stroke:#22dcf2; stroke-miterlimit:10;"/><line x1="180.77" y1="60.17" x2="177.45" y2="58.34" style="fill:none; stroke:#109ecd; stroke-miterlimit:10;"/><path d="M184.29,62.52c-1.29-.57-2.47-1.36-3.52-2.35" style="fill:none; stroke:#158ec8; stroke-miterlimit:10;"/><line x1="180.77" y1="60.17" x2="177.21" y2="57.42" style="fill:none; stroke:#1f7abd; stroke-miterlimit:10;"/><path d="M177.21,57.42l-3.51-3.11c-.21-.19-.48-.29-.76-.3l-2.21-.08" style="fill:none; stroke:#31a8d8; stroke-miterlimit:10;"/><path d="M112.54,30.35l-5.08,4.64M104.74,35.01c-.99-1.33-2.1-2.28-3.33-2.87-.09-.05-.2-.07-.31-.07h-14.18c-.34,0-.65.19-.8.5-.35.69-.52,1.47-.5,2.33M144.54,48.22l-5.31.31M135.02,48.57l-5.28.08" style="fill:none; stroke:#82e9f5; stroke-miterlimit:10;"/><path d="M160.38,47.86c-2.87.28-4.89,1.29-6.08,3.04-.77,1.13-1.17,3.4-1.18,6.79-.03,6.64-.06,13.36-.08,20.15" style="fill:none; stroke:#61e1f0; stroke-miterlimit:10;"/><line x1="90.94" y1="86.52" x2="84.15" y2="86.24" style="fill:none; stroke:#dcf8fa; stroke-miterlimit:10;"/><path d="M76.44,109.58l-6.72.7M83.84,80.13l7.14-.05" style="fill:none; stroke:#82e9f5; stroke-miterlimit:10;"/><line x1="91" y1="95.58" x2="84.03" y2="95.25" style="fill:none; stroke:#61e1f0; stroke-miterlimit:10;"/><path d="M111.37,122.09c-2.37-.21-4.43-.21-6.18,0-.69.08-.97.58-.82,1.5" style="fill:none; stroke:#82e9f5; stroke-miterlimit:10;"/><path d="M84,122.27l7.02-.69M64.02,136.6l-3.64,1.68c-.37.17-.8-.1-.8-.51l-.02-47.38" style="fill:none; stroke:#77e6f4; stroke-miterlimit:10;"/><path d="M32.7,92.22c-2.9,2.85.99,6.28,2.94,3.01" style="fill:none; stroke:#7d5225; stroke-miterlimit:10;"/><path d="M41.57,92.52c-1.67-.65-2.11.69-1.31,4.01" style="fill:none; stroke:#e8cb9f; stroke-miterlimit:10;"/><path d="M38.28,90.33c-.02,1.09-.05,2.11-.09,3.07-.09,2.04-.94,2.65-2.55,1.83" style="fill:none; stroke:#f4cc94; stroke-miterlimit:10;"/><path d="M35.64,95.23c.51-1.87-1.04-3.68-2.94-3.01" style="fill:none; stroke:#878277; stroke-miterlimit:10;"/><path d="M32.7,92.22c-1.07.22-1.84.06-2.33-.47-.35-.39-.52-1.18-.49-2.38" style="fill:none; stroke:#f4cc94; stroke-miterlimit:10;"/><path d="M154.34,88.81c-.83.98-2.19,1.34-4.1,1.09-1.66-.22-3.34-.46-5.03-.73-.55-.09-1.08-.31-1.53-.65l-5.38-4.04" style="fill:none; stroke:#82e9f5; stroke-miterlimit:10;"/><path d="M174.78,92.3c-.39,1.81-.36,3.28.09,4.41" style="fill:none; stroke:#83e7e9; stroke-miterlimit:10;"/><path d="M158.25,96.75c-1.12-.07-1.68.31-1.69,1.14-.13,13.52-.2,25.94-.22,37.25,0,3.01-1.1,5.05-3.27,6.14-.28.15-.59.24-.9.28-2.85.37-9.9.5-21.17.39-4.09-.03-7.57-.41-10.44-1.13" style="fill:none; stroke:#169ed2; stroke-miterlimit:10;"/><path d="M118.37,131.57c1.88.6,4.17.76,6.88.49" style="fill:none; stroke:#61e1f0; stroke-miterlimit:10;"/><path d="M182.26,88.46c.86,1.9-.13,2.72-1.82,3.16-2.97.76-2.08,3.53-3.9,5.45-.04.05-.38.06-1.03.04" style="fill:none; stroke:#f4cc94; stroke-miterlimit:10;"/><path d="M123.54,84.49c.75,3.82-.83,5.98-4.76,6.48" style="fill:none; stroke:#82e9f5; stroke-miterlimit:10;"/><path d="M125.15,127.19c-2.51-1.35-4.78-3.13-6.82-5.35" style="fill:none; stroke:#dcf8fa; stroke-miterlimit:10;"/><path d="M40.13,124.67c-.97-.03-2.05-.06-3.25-.11-1.26-.05-1.74-.52-1.44-1.42" style="fill:none; stroke:#11aed7; stroke-miterlimit:10;"/><line x1="35.44" y1="123.14" x2="35.96" y2="122.41" style="fill:none; stroke:#04708d; stroke-miterlimit:10;"/><path d="M35.96,122.41c-.05.35.04.59.27.71.5.26.9.15,1.21-.32,2.4-3.62-2.31-6.8-5.44-7.09" style="fill:none; stroke:#77e6f4; stroke-miterlimit:10;"/><path d="M35.96,122.41c.24-1.82-1.7-4.01-3.38-2.75" style="fill:none; stroke:#748395; stroke-miterlimit:10;"/><path d="M32.58,119.66c-1.59-.04-1.67,1.25-2.89,1.27-.54.01-1.13-.2-1.76-.63" style="fill:none; stroke:#81c2df; stroke-miterlimit:10;"/><path d="M35.44,123.14c-.75.79-1.58.96-2.47.49-1.47-.77-1.6-2.09-.39-3.97" style="fill:none; stroke:#0d4c78; stroke-miterlimit:10;"/><path d="M182.44,117.09c.69,1.09.86,1.98.53,2.68-.15.32-.47.53-.83.52-2.85-.06-4.84,1.14-5.99,3.59-.17.38-.46.66-.85.85-.46.22-.86.31-1.2.27" style="fill:none; stroke:#f3cea1; stroke-miterlimit:10;"/><path d="M39.9,134.09l.33,1.64c.06.32-.04.64-.28.86-.35.31-.85.51-1.51.59" style="fill:none; stroke:#f9d89a; stroke-miterlimit:10;"/><path d="M38.44,137.18c-.87-.21-1.58-.06-2.14.47" style="fill:none; stroke:#878277; stroke-miterlimit:10;"/><path d="M36.3,137.65l-1.49-.19c-.33-.05-.59-.31-.64-.64l-.24-1.76" style="fill:none; stroke:#f9d89a; stroke-miterlimit:10;"/><path d="M36.3,137.65c-.99,1.62-.44,4.14,1.74,4.15,1.09,0,1.99-.86,2.02-1.95.03-1.21-.51-2.1-1.62-2.67" style="fill:none; stroke:#825e2a; stroke-miterlimit:10;"/><path d="M51.53,152.32l3.68-.83c.76-.17.97-1.16.35-1.63l-4.66-3.52c-.16-.13-.37-.17-.57-.13l-1.82.43" style="fill:none; stroke:#109ecd; stroke-miterlimit:10;"/></g><path d="M139.95,17.84c.13.36.22.7.29,1.02.09.41.02.73-.2.96-.34.35-.86.54-1.55.59-9.13-2.99-18.11-4.71-26.95-5.15-20.77-1.02-39.93,4.42-57.48,16.32l-7,5.01c-.22.15-.4.35-.53.59-.85,1.53-2.51,1.88-3.74,3.14-.79.81-1.52,1.64-2.2,2.5l-7.36,8.26c-.21.24-.51.37-.82.38-.99,0-1.92-.39-2.77-1.21C50.05,24.48,76.74,11.83,109.73,12.3c10.41.15,20.49,1.99,30.22,5.54h0Z" style="fill:#fdffff;"/><path d="M43.56,39.67c26.42-23.96,61.56-30.44,94.93-19.26,6.45,2.97,13.18,5.87,18.04,5.45.55,6.14,11.11,8.72,15.08,13.71,1.61,1.78-10.27.64-10.45,1.05,0,0-11.46-5.99-11.46-5.99-.29-2.84-5.13-5.23-7.79-3.58-17.01-12.25-47.75-4.95-58.93-6.45-4.94.92-9.02,5.24-14,6.19.59.04,1.88-.23,1.69.74-1.41,4.15-6.23-.39-9.67,1.66-7.39,3.75-10.53,15.71-18.72,19.44-12.1,2.16-21.22,26.89-7.8,6.22-5.44,6.15.53,6.92-6.81,9.31.2,7.97,7.66,12.56,15.11,12.05,3.34-1.83,9.88-2.37,13.64-2.18-8.01,13.16-34.31-5.3-35.12,17.06-2.48,6.58,7.17,12.3,3.38,15.51-1.6-2.63-3.14-2.63-4.63,0-8.57-.67-8.91-7.79-8.48-14.67,2.53-18.75,8.93-40.33,24.86-48.44" style="fill:#07d2eb;"/><path d="M154.28,24.55c.13.88,0,1.42-.38,1.61-.75.39-1.5.39-2.25.02-4.57-2.25-8.96-4.18-13.16-5.77.69-.05,1.21-.24,1.55-.59.22-.23.29-.55.2-.96-.07-.32-.16-.66-.29-1.02,5.09,1.69,9.86,3.93,14.33,6.71h0Z" style="fill:#baf0f4;"/><path d="M143.97,31.36c-1.8,1.05-2.57,3.31-1.13,5.06.19.22.31.44.37.65.1.34-.15.68-.5.68h-5.07c-.33,0-.58-.28-.54-.61.52-4.28,1.16-6.92-2.11-10.4l8.98,4.62h0Z" style="fill:#3de6f8;"/><path d="M75.86,28.88c-1.16,2.49-1.35,5.09-.56,7.82.08.27-.07.55-.34.63-2.27.7-4.33-2.3-6.22-3.6,1.08-.72,1.72-1.45,1.93-2.2.1-.37-.18-.74-.57-.74h-1.12c-.11,0-.14-.15-.04-.19,2.27-.98,4.57-1.55,6.92-1.72h0Z" style="fill:#3de6f8;"/><path d="M164.2,32.11c-.04.05-.28-.07-.52-.28-.24-.2-.41-.41-.37-.46.04-.05.28.07.52.28.24.2.41.41.37.46h0Z" style="fill:#08204f;"/><path d="M176.48,31.95c-.11.12-.64-.18-1.18-.68-.54-.5-.89-1-.78-1.12.11-.12.64.18,1.18.68.54.5.89,1,.78,1.12h0Z" style="fill:#08204f;"/><path d="M112.54,30.35l-5.08,4.64-2.72.02c-.99-1.33-2.1-2.28-3.33-2.87-.09-.05-.2-.07-.31-.07h-14.18c-.34,0-.65.19-.8.5-.35.69-.52,1.47-.5,2.33-1.87.8-4.35.39-4.27-2.08.07-2.05,1.23-2.48,3.3-2.46,9.09.09,18.39.09,27.89,0h0Z" style="fill:#fdffff;"/><path d="M107.46,34.99l5.08-4.64,16-.06c1.4,0,2.54,1.12,2.56,2.52v.18c.03,1.26-1.06,2.29-2.41,2.27l-21.23-.27h0Z" style="fill:#07d2eb;"/><path d="M104.74,35.01l-19.12-.11c-.02-.86.15-1.64.5-2.33.15-.31.46-.5.8-.5h14.18c.11,0,.22.02.31.07,1.23.59,2.34,1.54,3.33,2.87h0Z" style="fill:#07d2eb;"/><path d="M149.7,34.63l11.46,5.99c-3.43-.17-6.85,1.17-10.26,4.02-.19.16-.47.02-.47-.22v-3.85c0-.14-.03-.28-.08-.41-.39-.91-.96-1.49-1.7-1.76-.37-.14-.51-.58-.29-.91.61-.89,1.05-1.85,1.34-2.86h0Z" style="fill:#3de6f8;"/><path d="M67.95,42.22c0,2.18-1.77,3.95-3.95,3.95s-3.95-1.77-3.95-3.95,1.77-3.95,3.95-3.95,3.95,1.77,3.95,3.95h0Z" style="fill:#f4b44d;"/><path d="M63.13,44.69c-3.31-.89-1.74-6.4,1.54-5.4,3.31.89,1.74,6.4-1.54,5.4h0Z" style="fill:#fefbe6;"/><path d="M75.21,57.44c-1.34-4.86,1.93-12.14-4.32-14.01,2.18-12.39,15.15,10.65,4.32,14.01Z" style="fill:#f4b44d;"/><path d="M54.55,41.01c-.04,14.66,11.44,2.37,8.5,25.53.47,1.38-12.48.22-12.84.56,1.36-12.78-17.39-13.44-19.32-2.17-.06,1.16-3.25,3.51-3.28,1.5,5.25-13.01,19.29-13.83,26.94-25.42Z" style="fill:#3de6f8;"/><path d="M99.28,40.66c.33,0,.46.42.19.6l-13.34,9.11c-.19.13-.44-.01-.44-.24v-8.92c0-.3.25-.55.55-.55h13.04Z" style="fill:#3de6f8;"/><path d="M112.02,40.56l11.09.21c.25,0,.46.21.45.47l-.13,7.59c0,.19-.23.3-.38.19l-11.2-7.95c-.22-.16-.11-.51.17-.51h0Z" style="fill:#3de6f8;"/><path d="M144.54,48.22l-5.31.31-4.21.04-5.28.08.05-4.12c0-.3.25-.54.55-.54h13.43c.32,0,.58.25.6.57l.17,3.66h0Z" style="fill:#fdffff;"/><path d="M49.77,83.9c-.25-.79.1-1.43,1.05-1.92,2.13-1.09,4-2.41,5.6-3.95,14.83-10.23,29.68-20.36,44.54-30.41,5.97-4.04,10.45.5,15.62,4.65.28.22.26.65-.03.85l-4.4,3c-.25.17-.58.16-.82-.02l-5.25-3.97c-.27-.2-.64-.21-.91-.02l-46.01,31.39c-.25.18-.55.27-.85.27l-8.54.13h0Z" style="fill:#fdffff;"/><path d="M160.38,47.86c-2.87.28-4.89,1.29-6.08,3.04-.77,1.13-1.17,3.4-1.18,6.79-.03,6.64-.06,13.36-.08,20.15-1.19-.57-1.8-1.22-1.81-1.95-.08-2.83-.09-8.99-.04-18.5,0-2.58.49-4.63,1.44-6.14,2.3-3.67,4.88-4.8,7.75-3.39h0Z" style="fill:#baf0f4;"/><path d="M172.99,47.16h6.82c1.23,0,2.41.49,3.27,1.35l1.64,1.64c.5.5.15,1.36-.56,1.36h-11.34c-.24,0-.44-.2-.44-.44v-3.3c0-.34.27-.61.61-.61h0Z" style="fill:#07d2eb;"/><path d="M144.54,48.22l.04,23.19c0,.1-.12.15-.2.09l-4.78-3.62c-.17-.13-.27-.32-.27-.53l-.1-18.82,5.31-.31h0Z" style="fill:#07d2eb;"/><path d="M135.02,48.57l-.02,15.03c0,.33-.37.51-.63.32l-4.16-3.15c-.28-.21-.45-.55-.45-.9l-.02-11.22,5.28-.08h0Z" style="fill:#07d2eb;"/><path d="M160.38,47.86l-.17,3.1c-.01.26-.2.49-.46.54-2.03.43-3.05,1.81-3.06,4.14-.05,8.21-.06,16.32-.01,24.35,0,.42-.49.65-.81.37l-2.83-2.52c.02-6.79.05-13.51.08-20.15,0-3.39.41-5.66,1.18-6.79,1.19-1.75,3.21-2.76,6.08-3.04h0Z" style="fill:#07d2eb;"/><path d="M69.89,60.89c0,.46-.38.84-.84.84h-.06c-.46,0-.84-.37-.84-.84l-.02-10.16c0-.46.38-.84.84-.84h.06c.46,0,.84.37.84.84l.02,10.16h0Z" style="fill:#2469b8;"/><path d="M184.29,62.52c-1.29-.57-2.47-1.36-3.52-2.35l-3.56-2.75-3.51-3.11c-.21-.19-.48-.29-.76-.3l-2.21-.08c.29-.53.62-.91,1.01-1.16.27-.17.63-.15.87.05l11.68,9.7h0Z" style="fill:#2469b8;"/><path d="M170.73,53.93c2.42-.54,6.01,2.25,6.72,4.41,3.56,5.29,11.17,6.65,15.24,11.97-7.08-3.15-19-13.36-28.3-12.09,5.98,7.29,14.66-.82,21.77,14.3-.57-.5-23.99,1.38-23.83-.24,0,0,0-16.82,0-16.82,1.52-1.27,4.81,2.22,8.4-1.53Z" style="fill:#3de6f8;"/><path d="M57.69,56.62c0,1.29-1.05,2.34-2.34,2.34s-2.34-1.05-2.34-2.34,1.05-2.34,2.34-2.34,2.34,1.05,2.34,2.34h0Z" style="fill:#000d2e;"/><path d="M50.21,67.1c-.11.23-.28.3-.52.19-.36-.02-.57-.33-.63-.92-.5-4.55-2.61-7.2-6.32-7.95-5.38-1.09-9.4,1.97-9.96,7.48-.09.91-.41,1.26-.96,1.05-.63-2.7.25-5.4,2.66-8.1,2.7-1.81,5.61-2.37,8.72-1.7,4.86,1.06,7.2,4.38,7.01,9.95h0Z" style="fill:#fefbe6;"/><path d="M192.69,70.31c11.76,7.29,13.34,40.92,6.22,53.24-7.87-3.82-12.8-17.44-24.18-10.6-3.26-4.47-7.14-2.01-10.82-4.52.15-10.18,16.43,1.04,22.02-3.36,11.01-4.63,8.76-21.56-3.23-22.62.63-1.25,1.05-2.63,1.24-4.16,8.03,3.65,9.44-8.57,2.22-5.77-2.69-7.08-11.15-12.1-18.43-10.96-12.38-11.84,23.76,7.31,24.96,8.75Z" style="fill:#07d2eb;"/><polygon points="180.77 60.17 177.45 58.34 177.21 57.42 180.77 60.17 180.77 60.17" style="fill:#1a8ac2;"/><path d="M49.69,67.29c-1.09,4.33-3.49,6.79-7.2,7.38-5.43.86-8.98-1.71-10.67-7.72.55.21.87-.14.96-1.05.56-5.51,4.58-8.57,9.96-7.48,3.71.75,5.82,3.4,6.32,7.95.06.59.27.9.63.92h0Z" style="fill:#f4b44d;"/><path d="M180.77,60.17c1.05.99,2.23,1.78,3.52,2.35l3.71,3.29c-4.59-2.16-7.77-3.66-10.55-7.47l3.32,1.83h0Z" style="fill:#05b2d7;"/><path d="M90.94,86.52l-6.79-.28-7.14.1c-.29,0-.53.24-.53.53l-.04,22.71-6.72.7c0-6.99-.04-14.03-.11-21.14-.04-4.53,1.99-7.45,6.08-8.76.37-.12.76-.18,1.16-.19l6.99-.06,7.14-.05,10.4-.04c.34,0,.61-.27.61-.61v-15.61c0-1.81,1.46-3.28,3.27-3.28h.41c1.66,0,3.01,1.35,3.01,3.01v32.72c0,.31.26.57.57.57h3.16c1.71,0,3.09,1.38,3.09,3.09v.29c0,1.62-1.32,2.94-2.94,2.94h-16.16c-1.63,0-2.95-1.32-2.95-2.95v-.34c0-1.67,1.36-3.03,3.03-3.03h4.88c.34,0,.62-.28.62-.62v-9.41c0-.34-.28-.61-.62-.6l-10.42.31h0Z" style="fill:#fdffff;"/><path d="M154.34,88.81c-11.5,6.03-29.42-17.29-38.56-22.16-8.14-20.02,37.18,22.86,38.56,22.16Z" style="fill:#fdffff;"/><path d="M45.77,66.09c0,2.73-2.22,4.95-4.95,4.95s-4.95-2.22-4.95-4.95,2.22-4.95,4.95-4.95,4.95,2.22,4.95,4.95h0Z" style="fill:#000d2e;"/><path d="M170.69,65.77c0,1.24-1.01,2.25-2.25,2.25s-2.25-1.01-2.25-2.25,1.01-2.25,2.25-2.25,2.25,1.01,2.25,2.25h0Z" style="fill:#08204f;"/><path d="M90.98,80.08l-7.14.05c.13-3.22-.97-8.49,3.32-9.34,4.58-.9,4.18,5.86,3.82,9.29h0Z" style="fill:#07d2eb;"/><path d="M183.94,78.29c-.19,1.53-.61,2.91-1.24,4.16-2.61.04-5.15.47-7.63,1.3-.11.04-.21.06-.32.06l-11.78.22c-.36.01-.66-.29-.66-.65v-4.49c0-.34.27-.61.61-.61h21.02Z" style="fill:#3de6f8;"/><path d="M123.54,84.49c.75,3.82-.83,5.98-4.76,6.48-4.38-.52-5.37-5.4-1.92-7.98,2.29-1.71,4.52-1.21,6.68,1.5h0Z" style="fill:#fdffff;"/><path d="M138.3,84.48c3.74,3.44,11.39,7.75,16.04,4.33,1.4.91,4.12,3.87,5.97,3.65,0,0,14.47-.16,14.47-.16-.39,1.81-.36,3.28.09,4.41-1.31.72-18.66-1.4-18.31,1.18-1.92,36.74,11.29,50.25-36,42.93-3.9-5.31-3.65-10.4,4.69-8.76.34.57-.57,5,.83,4.82,0,0,25.37,0,25.37,0,1.37-.89,1.02-40.64.12-41.91-3.93-7.07-26.55-3.51-32.79-4,12.05-4.37-4.94-7.79,19.52-6.49Z" style="fill:#07d2eb;"/><polygon points="90.94 86.52 91 95.58 84.03 95.25 84.15 86.24 90.94 86.52 90.94 86.52" style="fill:#baf0f4;"/><path d="M38.28,90.33c-.11,2.02.47,6.57-2.64,4.9.51-1.87-1.04-3.68-2.94-3.01-7.97-1.32,3.21-6.66,5.58-1.89Z" style="fill:#fefbe6;"/><path d="M182.26,88.46c.86,1.9-.13,2.72-1.82,3.16-2.97.76-2.08,3.53-3.9,5.45-.04.05-.38.06-1.03.04-.18-.23-.39-.37-.64-.4-.45-1.13-.48-2.6-.09-4.41,1.45-2.93,3.94-4.21,7.48-3.84h0Z" style="fill:#fefbe6;"/><path d="M175.51,97.11c3.29-.11,1.46-4.99,4.93-5.49,1.69-.44,2.68-1.26,1.82-3.16,11.61,3.15-.95,19.12-6.75,8.65Z" style="fill:#e99c42;"/><path d="M64.02,136.6c-.58-.11-4.36,2.86-4.44,1.17,1.19-1.37-2.41-48.7,1.38-48.76,8.35,9.53.67,33.13,3.06,47.59Z" style="fill:#07d2eb;"/><path d="M29.88,89.37c-.07,2.31.59,3.24,2.82,2.85-4.47,6.52,7.62,5.06,5.58-1.89.94,1.77,2.04,2.5,3.29,2.19-1.67-.65-2.11.69-1.31,4.01-5.89,9.09-17.65-.17-10.38-7.16Z" style="fill:#e99c42;"/><path d="M59.56,90.39l.02,47.38c0,.41.43.68.8.51l3.64-1.68,19.53.14c.33,0,.6-.27.59-.6l-.14-13.87,7.02-.69c.02,4.73-.02,9.59-.11,14.56-.07,3.6-1.52,5.93-4.35,7-.28.11-.58.17-.88.16-7.91-.01-13.74,0-17.48.06-5.2.07-8.01-.62-10.03-4.81-.51-1.07-.77-2.68-.78-4.85,0-10.37,0-22.54,0-36.49,0-.27-.21-.48-.48-.49l-16.64-.19c-.8-3.32-.36-4.66,1.31-4.01l14.84-.14c.39,0,.77-.13,1.08-.38l2.07-1.61h0Z" style="fill:#e7f9fc;"/><path d="M35.64,95.23c-1.95,3.27-5.84-.16-2.94-3.01,1.9-.67,3.45,1.14,2.94,3.01h0Z" style="fill:#100807;"/><path d="M183.01,94.48c0,1.13-.92,2.05-2.05,2.05s-2.05-.92-2.05-2.05.92-2.05,2.05-2.05,2.05.92,2.05,2.05h0Z" style="fill:#100807;"/><path d="M27.74,145.27c6.69,12.35,23.32,11.36,35.19,13.22,1.22,7.57-11.67,3.19-17.67,3.63-3.36-.79-6.03,1.44-4.36,4.83,3.76,4.35,17.63-1.02,22.1,1.85-2.53,24.74,16.56,13.45,30.94,19.42-9.33-4.09-17.32.79-27.02-1.03-1.04.47,1.78,2.39,2.4,2.16,16.56-5.79,44.27,10.4,48.96-13.81,0,0,5.37,0,5.37,0,4.84,19.45,25.49,8.97,20.9-8.74,3.17.06,26.74,5.28,28.13-1.12,1.45-6.78-18.52-1.97-21.25-3.07.92-11.35,23.89,2.97,23.01-13.92-.18-7.35-7.14-6.89-10.9-8.68,1.05-8.5,16.46,1.69,21.46-3.99,2.66-3.11,11.75-10.83,5.84-19.62,8.47,10.23,7.71,8.36,11.91-2.32C188,237.88,1.55,221.05,11.57,95.93c0,7.74-1.01,13.22,8.48,14.67,2.05,6.62,3.87.18,6.45-1.4-2.84-3.92-6.13-8.3-5.2-14.11,2.87,21.97,32.55.82,30.65,13.85-3.35,2.16-7.97-1.52-10.07,3.32-4.6-1.07-9.31-3.64-13.79-.65-8.16,4.21-8.04,16.88-.31,21.07-.28,4.03-3.1,8.41-.04,12.59Z" style="fill:#05b2d7;"/><path d="M91,95.58c.38.38-.72,14.46.61,14.06,9.94-.23,22.6-1.86,19.76,12.45-2.51.25-6.97-1.47-7,1.5-.33-.54.5-7.86-.77-7.62-.42.23-12.88-.62-12.38.61.68,6.85-2.16,4.88-7.22,5.69,0,0,.03-27.02.03-27.02l6.97.33Z" style="fill:#07d2eb;"/><path d="M158.25,96.75c-.3,37.05,10.39,56.44-37.69,44.07,55.66,7.89,27.85-10.69,37.69-44.07Z" style="fill:#2469b8;"/><path d="M125.15,127.19c-18.34-12.3.95-19.25,13.7-18.03-.28-.52.66-6.15-.63-5.93,0,0-12.04,0-12.04,0-3.84.06-3.88-6.29-.03-6.27,13.54.36,18.82-3.1,19.47,9.67-1.65,6.16,3.71,20.13-3.27,23.82-5.82.5-2.85-10.91-3.54-13.9-14.92-.92-13.86-3.7-13.66,10.64Z" style="fill:#fdffff;"/><polygon points="203.17 106.41 203.04 99.11 203.17 106.41 203.17 106.41" style="fill:#2469b8;"/><path d="M24.68,110.6c-.4,3.75-4.23,3.75-4.63,0,1.49-2.63,3.03-2.63,4.63,0h0Z" style="fill:#000d2e;"/><path d="M193.56,111.02c0,1.22-.98,2.2-2.2,2.2s-2.2-.98-2.2-2.2.98-2.2,2.2-2.2,2.2.98,2.2,2.2h0Z" style="fill:#000d2e;"/><path d="M76.44,109.58c-.16,3.32,1.74,30.59-6.69,17.89,0,0-.03-17.19-.03-17.19l6.72-.7Z" style="fill:#07d2eb;"/><path d="M40.13,124.67c-.97-.03-2.05-.06-3.25-.11-1.26-.05-1.74-.52-1.44-1.42l.52-.73c-.05.35.04.59.27.71.5.26.9.15,1.21-.32,2.4-3.62-2.31-6.8-5.44-7.09,4.11-.92,6.9.64,8.37,4.68.12.34.44.56.81.56h10.46c.14,0,.26.12.26.26v3.31c0,.17-.14.31-.31.31l-11.46-.16h0Z" style="fill:#07d2eb;"/><path d="M32,115.71c3.13.29,7.84,3.47,5.44,7.09-.31.47-.71.58-1.21.32-.23-.12-.32-.36-.27-.71.24-1.82-1.7-4.01-3.38-2.75-1.59-.04-1.67,1.25-2.89,1.27-.54.01-1.13-.2-1.76-.63.44-2.14,1.8-3.67,4.07-4.59h0Z" style="fill:#e7f9fc;"/><path d="M182.44,117.09c2.56,4.69-6.04,2.96-7.14,7.64-2.77-.15-13.63,2.73-11.33-3.3,13,.28,10.33-3.99,18.47-4.34Z" style="fill:#fdffff;"/><path d="M174.1,125c3.19-.72,3.67-5.53,8.04-4.71,1.46-.26,1.13-1.89.3-3.2,12.24,5.24-2.31,19.42-8.34,7.91Z" style="fill:#e99c42;"/><path d="M35.96,122.41l-.52.73c-.75.79-1.58.96-2.47.49-1.47-.77-1.6-2.09-.39-3.97,1.68-1.26,3.62.93,3.38,2.75h0Z" style="fill:#000d2e;"/><path d="M32.58,119.66c-1.21,1.88-1.08,3.2.39,3.97.89.47,1.72.3,2.47-.49-.3.9.18,1.37,1.44,1.42,1.2.05,2.28.08,3.25.11-3.45,3.45-6.77,4.06-9.98,1.82-2.06-1.45-2.8-3.51-2.22-6.19.63.43,1.22.64,1.76.63,1.22-.02,1.3-1.31,2.89-1.27h0Z" style="fill:#1a8ac2;"/><path d="M96.34,135.93c-1.56-1.16-2.15-15.06,1.16-15.2,4.27-.31,1.67,12.07,2.34,14.28.06,1.48-2.7.76-3.5.92h0Z" style="fill:#07d2eb;"/><path d="M134.76,134.02c0,.93-.74,1.7-1.67,1.71h-1.34c-.94.03-1.7-.72-1.71-1.66l-.12-11.52c0-.93.74-1.69,1.67-1.71h1.34c.94-.03,1.7.72,1.71,1.66l.12,11.52h0Z" style="fill:#07d2eb;"/><path d="M183.15,123.46c0,1.22-.98,2.2-2.2,2.2s-2.2-.98-2.2-2.2.98-2.2,2.2-2.2,2.2.98,2.2,2.2h0Z" style="fill:#100807;"/><path d="M111.37,122.09v20.4c0,.45-.37.81-.82.81h-5.3c-.5,0-.91-.41-.91-.91l.03-18.8c-.15-.92.13-1.42.82-1.5,1.75-.21,3.81-.21,6.18,0h0Z" style="fill:#fdffff;"/><path d="M125.15,127.19c1.47,5.68-2.79,5.63-6.78,4.38,0,0-.04-9.73-.04-9.73,2.04,2.22,4.31,4,6.82,5.35Z" style="fill:#baf0f4;"/><path d="M186.61,134.21l-2.47,1.47c-.21.12-.1.45.14.42l.72-.08c.07,0,.11.09.05.13-1.85,1.34-4.11,1.59-6.22,1.49-4.29-.22-8.6-.58-12.91-1.08l5.23-.16c.42,0,.69-.44.53-.83l-2.46-5.83c-.17-.41.29-.79.66-.55,1.29.83,2.67,2.76,4.1,3.74,3.61,2.47,7.82,2.9,12.63,1.28h0Z" style="fill:#1a8ac2;"/><path d="M39.9,134.09c1.64,3.46-2.92,3.38-5.09,3.37-3.01-2.84,2.59-4.74,5.09-3.37Z" style="fill:#fefbe6;"/><path d="M39.9,134.09c2.23,2.1,7.68,3.51,11.23,2.79,5.44,6.97-3.63,3.15-6.77,4.1-5.68,9.87-17.59.71-10.43-5.92-.01,1.65.55,2.76,2.37,2.59-2.97,6.62,7.97,3.7,2.14-.47,2.04-.05,1.92-1.67,1.46-3.09Z" style="fill:#f4b44d;"/><path d="M38.44,137.18c1.11.57,1.65,1.46,1.62,2.67-.03,1.09-.93,1.96-2.02,1.95-2.18-.01-2.73-2.53-1.74-4.15.56-.53,1.27-.68,2.14-.47h0Z" style="fill:#100807;"/><path d="M51.53,152.32l3.68-.83c.76-.17.97-1.16.35-1.63l-4.66-3.52c-.16-.13-.37-.17-.57-.13l-1.82.43c1.17-1.44,2.61-2.67,4.32-3.7.27-.17.63-.09.82.18,2.05,3.06,4.77,5.19,8.14,6.38.92.33,1.26.97,1.26,1.84,0,.49-.39.89-.88.9l-10.64.08h0Z" style="fill:#1a8ac2;"/><path d="M153.31,149.37c4.3-.34,6.76-2.62,8.96-6.01.18-.28.55-.35.83-.16,2.11,1.48,3.68,2.7,4.7,3.66,2.16,2.03,1.61,5.38-1.64,5.42-.91.01-4.58.01-10.99.01-.49,0-.96-.25-1.24-.66l-1-1.47c-.22-.32,0-.76.38-.79h0Z" style="fill:#05b2d7;"/><path d="M43.62,156.21c-2.81-1.87-6.4-3.52-10.79-4.95-2.49-.81-4.18-2.81-5.09-5.99,3.04,4.66,7.24,6.56,12.61,5.7.35-.05.69.12.84.43l2.43,4.81h0Z" style="fill:#2469b8;"/><path d="M51.53,152.32c-4.29.71-7.06-2.31-3.02-5.68l1.82-.43c.2-.04.41,0,.57.13l4.66,3.52c.62.47.41,1.46-.35,1.63l-3.68.83h0Z" style="fill:#05b2d7;"/><path d="M184.43,149.69c0,1.62-1.31,2.93-2.93,2.93s-2.93-1.31-2.93-2.93,1.31-2.93,2.93-2.93,2.93,1.31,2.93,2.93h0Z" style="fill:#000d2e;"/><path d="M76.8,161.7c0,.27.32.4.51.22l12.38-11.49c1.59-1.48,4.06-1.43,5.59.11l.22.21c1.41,1.42,1.37,3.73-.1,5.09l-8.89,8.26c-.2.18-.21.49-.02.68l8.86,8.86c1.42,1.42,1.38,3.74-.09,5.1l-.32.3c-1.51,1.41-3.87,1.36-5.33-.1l-9.18-9.18c-.26-.25-.66-.28-.95-.06-1.71,1.31-2.75,2.78-2.68,5.38.12,4.45-4.96,6.77-7.28,2.81-.42-.71-.64-2.08-.65-4.11-.05-7.87-.05-14.65,0-20.36.02-2.13,1.75-3.85,3.88-3.85h.44c1.99,0,3.61,1.61,3.61,3.6v8.53h0Z" style="fill:#fdffff;"/><path d="M111.35,175.96c-.01,2.15-1.75,3.88-3.89,3.87h-.22c-2.15-.01-3.88-1.75-3.87-3.89l.08-22.64c.01-2.15,1.75-3.88,3.89-3.87h.22c2.15.01,3.88,1.75,3.87,3.89l-.08,22.64h0Z" style="fill:#fdffff;"/><path d="M134.2,149.58c3.94-.11,8.03-.09,12.26.06,2.1.08,3.75,1.81,3.73,3.9v.2c.05,2.15-1.66,3.93-3.82,3.96l-7.41.11c-.36,0-.66.3-.66.66.05,8.29.1,13.66.13,16.1.04,2.65-1.03,5.22-4.04,5.24-3.01.02-4.12-2.54-4.11-5.2,0-2.43-.02-7.8-.06-16.09,0-.37-.31-.66-.67-.65l-7.41-.02c-2.16,0-3.9-1.77-3.88-3.92v-.2c-.04-2.09,1.59-3.84,3.69-3.94,4.23-.2,8.32-.27,12.25-.21h0Z" style="fill:#fdffff;"/><path d="M40.72,154.78c-.09.31-2.7-.2-5.83-1.13-3.12-.94-5.59-1.94-5.5-2.24.09-.31,2.7.2,5.83,1.13,3.12.94,5.59,1.94,5.5,2.24h0Z" style="fill:#1a8ac2;"/><path d="M97.27,165.22s.05.08.05.15c.08,1,.08,1.93,0,2.79-.03.31-.42.42-.61.19-.38-.44-.77-.86-1.19-1.24-.41-.39-.85-.75-1.32-1.09-.25-.18-.16-.57.14-.62.85-.15,1.78-.23,2.78-.22.07,0,.12.01.16.04h0Z" style="fill:#2469b8;"/><path d="M124.4,169.44c.14,1.85-4.85.71-5.75,1.01-1.69.08-.8-3.32-1.01-4.21-.14-1.85,4.85-.71,5.75-1.01,1.69-.08.8,3.32,1.01,4.21Z" style="fill:#1a8ac2;"/><path d="M150.97,177.27c-1.09-.43-1.58-1.75-1.11-2.94.48-1.19,1.74-1.8,2.83-1.37,1.09.43,1.58,1.75,1.11,2.94-.48,1.19-1.74,1.8-2.83,1.37h0Z" style="fill:#000d2e;"/><path d="M58.09,175.89c.03.83-.62,1.54-1.46,1.57l-1,.04c-.84.03-1.55-.63-1.57-1.46l-.04-1.2c-.03-.83.62-1.54,1.46-1.57l1-.04c.84-.03,1.55.63,1.57,1.46l.04,1.2h0Z" style="fill:#000d2e;"/></svg>